<svg width="16" height="23" viewBox="0 0 16 23" fill="none" xmlns="http://www.w3.org/2000/svg">
<circle cx="12" cy="16" r="4" fill="url(#paint0_linear_582_33)"/>
<path d="M1.32741 20V4.72727H7.35298C8.51136 4.72727 9.49822 4.94851 10.3136 5.39098C11.1289 5.82848 11.7504 6.4375 12.1779 7.21804C12.6104 7.99361 12.8267 8.88849 12.8267 9.9027C12.8267 10.9169 12.608 11.8118 12.1705 12.5874C11.733 13.3629 11.0991 13.967 10.2688 14.3995C9.44354 14.832 8.44425 15.0483 7.27095 15.0483H3.4304V12.4606H6.74893C7.37038 12.4606 7.88246 12.3537 8.28516 12.1399C8.69283 11.9212 8.99609 11.6204 9.19496 11.2376C9.39879 10.8498 9.50071 10.4048 9.50071 9.9027C9.50071 9.3956 9.39879 8.95312 9.19496 8.57528C8.99609 8.19247 8.69283 7.89666 8.28516 7.68785C7.87749 7.47408 7.36044 7.36719 6.73402 7.36719H4.55646V20H1.32741Z" fill="#1D1D1F"/>
<path d="M1.32741 20V4.72727H7.35298C8.51136 4.72727 9.49822 4.94851 10.3136 5.39098C11.1289 5.82848 11.7504 6.4375 12.1779 7.21804C12.6104 7.99361 12.8267 8.88849 12.8267 9.9027C12.8267 10.9169 12.608 11.8118 12.1705 12.5874C11.733 13.3629 11.0991 13.967 10.2688 14.3995C9.44354 14.832 8.44425 15.0483 7.27095 15.0483H3.4304V12.4606H6.74893C7.37038 12.4606 7.88246 12.3537 8.28516 12.1399C8.69283 11.9212 8.99609 11.6204 9.19496 11.2376C9.39879 10.8498 9.50071 10.4048 9.50071 9.9027C9.50071 9.3956 9.39879 8.95312 9.19496 8.57528C8.99609 8.19247 8.69283 7.89666 8.28516 7.68785C7.87749 7.47408 7.36044 7.36719 6.73402 7.36719H4.55646V20H1.32741Z" fill="url(#paint1_linear_582_33)" fill-opacity="0.7"/>
<defs>
<linearGradient id="paint0_linear_582_33" x1="10.88" y1="20" x2="15.016" y2="13.232" gradientUnits="userSpaceOnUse">
<stop stop-color="#A300F0"/>
<stop offset="1" stop-color="#F0C400"/>
</linearGradient>
<linearGradient id="paint1_linear_582_33" x1="1.61538" y1="4.14" x2="3.85141" y2="15.1319" gradientUnits="userSpaceOnUse">
<stop stop-color="white" stop-opacity="0.7"/>
<stop offset="0.668721" stop-color="white" stop-opacity="0"/>
</linearGradient>
</defs>
</svg>
